<svg 
 xmlns="http://www.w3.org/2000/svg"
 xmlns:xlink="http://www.w3.org/1999/xlink"
 width="22px" height="20px">
<path fill-rule="evenodd"  fill="rgb(128, 119, 189)"
 d="M-0.000,20.000 L-0.000,1.298 L6.815,1.298 L6.815,-0.000 L8.368,-0.000 L8.368,1.298 L13.631,1.298 L13.631,-0.000 L15.184,-0.000 L15.184,1.298 L22.000,1.298 L22.000,20.000 L-0.000,20.000 ZM20.447,2.857 L15.184,2.857 L15.184,3.896 L13.631,3.896 L13.631,2.857 L8.368,2.857 L8.368,4.156 L6.815,4.156 L6.815,2.857 L1.553,2.857 L1.553,5.454 L20.447,5.454 L20.447,2.857 ZM20.447,7.013 L1.553,7.013 L1.553,18.441 L20.447,18.441 L20.447,7.013 ZM7.635,11.688 L5.047,11.688 L5.047,9.091 L7.635,9.091 L7.635,11.688 ZM7.635,16.363 L5.047,16.363 L5.047,13.766 L7.635,13.766 L7.635,16.363 ZM12.294,11.688 L9.706,11.688 L9.706,9.091 L12.294,9.091 L12.294,11.688 ZM12.294,16.363 L9.706,16.363 L9.706,13.766 L12.294,13.766 L12.294,16.363 ZM16.953,11.688 L14.364,11.688 L14.364,9.091 L16.953,9.091 L16.953,11.688 ZM16.953,16.363 L14.364,16.363 L14.364,13.766 L16.953,13.766 L16.953,16.363 Z"/>
</svg>