<svg 
 xmlns="http://www.w3.org/2000/svg"
 xmlns:xlink="http://www.w3.org/1999/xlink"
 width="11px" height="26px">
<path fill-rule="evenodd"  fill="rgb(236, 101, 101)"
 d="M0.354,19.798 L5.106,25.360 C5.196,25.456 5.303,25.504 5.428,25.504 C5.544,25.504 5.647,25.456 5.736,25.360 L10.422,19.798 C10.538,19.643 10.560,19.474 10.489,19.291 C10.417,19.107 10.288,19.016 10.101,19.016 L7.102,19.016 L7.102,0.940 C7.102,0.805 7.062,0.694 6.981,0.607 C6.901,0.520 6.798,0.477 6.673,0.477 L4.102,0.477 C3.977,0.477 3.875,0.520 3.795,0.607 C3.714,0.694 3.674,0.805 3.674,0.940 L3.674,19.016 L0.675,19.016 C0.497,19.016 0.367,19.107 0.287,19.291 C0.216,19.475 0.238,19.643 0.354,19.798 Z"/>
</svg>