<svg 
 xmlns="http://www.w3.org/2000/svg"
 xmlns:xlink="http://www.w3.org/1999/xlink"
 width="14px" height="18px">
<path fill-rule="evenodd"  fill="rgb(166, 173, 210)"
 d="M10.062,18.000 L-0.000,18.000 L-0.000,-0.000 L14.000,-0.000 L14.000,13.950 L10.062,13.950 L10.062,18.000 ZM10.281,10.350 L11.594,10.350 L11.594,5.400 L10.281,5.400 L10.281,10.350 ZM3.719,4.950 L2.406,4.950 L2.406,10.350 L3.719,10.350 L3.719,4.950 ZM6.344,6.300 L5.031,6.300 L5.031,10.350 L6.344,10.350 L6.344,6.300 ZM8.969,3.600 L7.656,3.600 L7.656,10.350 L8.969,10.350 L8.969,3.600 ZM11.375,18.000 L11.375,15.300 L14.000,15.300 L11.375,18.000 Z"/>
</svg>