<svg 
 xmlns="http://www.w3.org/2000/svg"
 xmlns:xlink="http://www.w3.org/1999/xlink"
 width="11px" height="26px">
<path fill-rule="evenodd"  fill="rgb(160, 202, 93)"
 d="M10.160,6.183 L5.424,0.621 C5.335,0.525 5.228,0.477 5.104,0.477 C4.988,0.477 4.886,0.525 4.797,0.621 L0.127,6.183 C0.011,6.338 -0.011,6.507 0.060,6.690 C0.132,6.874 0.260,6.965 0.447,6.965 L3.435,6.965 L3.435,25.041 C3.435,25.177 3.476,25.287 3.556,25.374 C3.636,25.461 3.738,25.504 3.863,25.504 L6.424,25.504 C6.549,25.504 6.651,25.461 6.731,25.374 C6.811,25.287 6.851,25.177 6.851,25.041 L6.851,6.965 L9.840,6.965 C10.018,6.965 10.147,6.874 10.226,6.690 C10.298,6.507 10.276,6.338 10.160,6.183 Z"/>
</svg>