<svg 
 xmlns="http://www.w3.org/2000/svg"
 xmlns:xlink="http://www.w3.org/1999/xlink"
 width="19px" height="15px">
<path fill-rule="evenodd"  fill="rgb(166, 173, 210)"
 d="M17.841,13.361 L9.944,0.523 C9.745,0.198 9.386,-0.000 9.000,-0.000 C8.613,-0.000 8.255,0.198 8.055,0.523 L0.159,13.361 C-0.047,13.695 -0.053,14.111 0.143,14.450 C0.338,14.790 0.705,15.000 1.103,15.000 L16.897,15.000 C17.295,15.000 17.661,14.790 17.857,14.450 C18.053,14.111 18.047,13.695 17.841,13.361 ZM9.006,4.441 C9.459,4.441 9.843,4.691 9.843,5.136 C9.843,6.492 9.680,8.442 9.680,9.798 C9.680,10.152 9.285,10.300 9.006,10.300 C8.634,10.300 8.320,10.152 8.320,9.798 C8.320,8.442 8.157,6.492 8.157,5.136 C8.157,4.691 8.529,4.441 9.006,4.441 ZM9.017,12.842 C8.506,12.842 8.122,12.432 8.122,11.964 C8.122,11.485 8.506,11.087 9.017,11.087 C9.494,11.087 9.901,11.485 9.901,11.964 C9.901,12.432 9.494,12.842 9.017,12.842 Z"/>
</svg>