<svg 
 xmlns="http://www.w3.org/2000/svg"
 xmlns:xlink="http://www.w3.org/1999/xlink"
 width="12px" height="19px">
<path fill-rule="evenodd"  fill="rgb(255, 255, 255)"
 d="M11.000,19.000 L1.000,19.000 L-0.000,19.000 L-0.000,18.000 L-0.000,1.000 L-0.000,-0.000 L1.000,-0.000 L11.000,-0.000 L12.000,-0.000 L12.000,1.000 L12.000,18.000 L12.000,19.000 L11.000,19.000 ZM11.000,1.000 L1.000,1.000 L1.000,18.000 L11.000,18.000 L11.000,1.000 ZM5.000,5.000 L3.000,5.000 L3.000,3.000 L5.000,3.000 L5.000,5.000 ZM5.000,7.999 L3.000,7.999 L3.000,6.000 L5.000,6.000 L5.000,7.999 ZM5.000,11.000 L3.000,11.000 L3.000,9.000 L5.000,9.000 L5.000,11.000 ZM5.000,14.000 L3.000,14.000 L3.000,12.000 L5.000,12.000 L5.000,14.000 ZM9.000,5.000 L7.000,5.000 L7.000,3.000 L9.000,3.000 L9.000,5.000 ZM9.000,7.999 L7.000,7.999 L7.000,6.000 L9.000,6.000 L9.000,7.999 ZM9.000,11.000 L7.000,11.000 L7.000,9.000 L9.000,9.000 L9.000,11.000 ZM9.000,14.000 L7.000,14.000 L7.000,12.000 L9.000,12.000 L9.000,14.000 Z"/>
</svg>