<svg 
 xmlns="http://www.w3.org/2000/svg"
 xmlns:xlink="http://www.w3.org/1999/xlink"
 width="19px" height="18px">
<path fill-rule="evenodd"  fill="rgb(166, 173, 210)"
 d="M17.943,8.000 C17.915,7.748 17.620,7.557 17.364,7.557 C16.540,7.557 15.808,7.073 15.501,6.324 C15.187,5.557 15.389,4.663 16.004,4.099 C16.198,3.922 16.221,3.626 16.059,3.420 C15.637,2.884 15.157,2.400 14.633,1.980 C14.428,1.816 14.127,1.838 13.949,2.035 C13.413,2.629 12.449,2.850 11.705,2.540 C10.930,2.214 10.441,1.428 10.489,0.586 C10.505,0.321 10.311,0.090 10.047,0.060 C9.375,-0.018 8.697,-0.020 8.023,0.054 C7.762,0.083 7.568,0.308 7.577,0.569 C7.606,1.404 7.112,2.175 6.345,2.490 C5.609,2.790 4.652,2.571 4.117,1.982 C3.940,1.788 3.644,1.764 3.438,1.925 C2.898,2.349 2.408,2.833 1.982,3.365 C1.816,3.572 1.840,3.871 2.035,4.049 C2.662,4.616 2.864,5.519 2.539,6.294 C2.228,7.034 1.460,7.511 0.580,7.511 C0.295,7.502 0.092,7.693 0.061,7.953 C-0.018,8.629 -0.019,9.318 0.057,9.999 C0.085,10.254 0.389,10.442 0.647,10.442 C1.431,10.422 2.183,10.907 2.499,11.676 C2.813,12.443 2.611,13.337 1.995,13.901 C1.803,14.078 1.779,14.373 1.941,14.579 C2.359,15.112 2.839,15.596 3.364,16.019 C3.571,16.186 3.871,16.162 4.049,15.965 C4.588,15.370 5.551,15.149 6.293,15.460 C7.070,15.785 7.558,16.571 7.511,17.414 C7.495,17.679 7.689,17.909 7.952,17.940 C8.296,17.980 8.642,18.000 8.989,18.000 C9.318,18.000 9.648,17.982 9.977,17.945 C10.238,17.916 10.431,17.691 10.422,17.430 C10.392,16.595 10.888,15.824 11.654,15.510 C12.394,15.208 13.347,15.429 13.883,16.018 C14.061,16.211 14.355,16.235 14.562,16.074 C15.100,15.652 15.590,15.168 16.018,14.635 C16.184,14.429 16.161,14.128 15.964,13.951 C15.338,13.384 15.134,12.481 15.460,11.706 C15.766,10.976 16.505,10.485 17.301,10.485 L17.412,10.488 C17.670,10.509 17.908,10.311 17.939,10.047 C18.018,9.371 18.019,8.682 17.943,8.000 ZM9.014,12.021 C7.359,12.021 6.012,10.674 6.012,9.019 C6.012,7.364 7.359,6.017 9.014,6.017 C10.669,6.017 12.016,7.364 12.016,9.019 C12.016,10.674 10.669,12.021 9.014,12.021 Z"/>
</svg>