<svg width="11" height="26" xmlns="http://www.w3.org/2000/svg">
 <g>
  <title>background</title>
  <rect x="-1" y="-1" width="13" height="28" id="canvas_background" fill="none"/>
 </g>

 <g>
  <title>Layer 1</title>
  <path stroke="null" fill-rule="evenodd" fill="rgb(160, 202, 93)" d="m10.16,19.55532l-4.735999,5.772239c-0.089,0.099629 -0.196,0.149443 -0.32,0.149443c-0.116,0 -0.217999,-0.049814 -0.306999,-0.149443l-4.669999,-5.772239c-0.116,-0.160859 -0.138,-0.336247 -0.067,-0.526164c0.072001,-0.190955 0.2,-0.285395 0.387,-0.285395l2.988,0l0,-18.759259c0,-0.141141 0.041001,-0.255299 0.121,-0.345587c0.08,-0.090289 0.182,-0.134914 0.306999,-0.134914l2.561,0c0.125,0 0.227,0.044626 0.306999,0.134914c0.08,0.090289 0.12,0.204446 0.12,0.345587l0,18.759259l2.988999,0c0.178,0 0.306999,0.09444 0.386,0.285395c0.072001,0.189918 0.05,0.365305 -0.066,0.526164z" id="svg_1"/>
 </g>
</svg>