<svg 
 xmlns="http://www.w3.org/2000/svg"
 xmlns:xlink="http://www.w3.org/1999/xlink"
 width="19px" height="20px">
<path fill-rule="evenodd"  fill="rgb(128, 119, 189)"
 d="M14.126,13.123 L3.835,13.123 C1.720,13.123 -0.001,11.390 -0.001,9.260 C-0.001,7.231 1.562,5.562 3.540,5.409 C3.540,5.399 3.540,5.388 3.540,5.378 C3.540,2.413 5.938,-0.000 8.886,-0.000 C11.049,-0.000 13.010,1.343 13.828,3.325 C13.927,3.318 14.027,3.315 14.126,3.315 C16.814,3.315 19.000,5.515 19.000,8.219 C19.000,10.923 16.814,13.123 14.126,13.123 ZM14.126,4.600 C13.921,4.600 13.714,4.617 13.512,4.652 C13.202,4.705 12.902,4.515 12.810,4.206 C12.297,2.486 10.684,1.284 8.886,1.284 C6.628,1.284 4.791,3.121 4.791,5.378 C4.791,5.569 4.806,5.769 4.835,5.973 C4.863,6.170 4.800,6.370 4.665,6.513 C4.529,6.656 4.336,6.727 4.143,6.703 C4.021,6.689 3.923,6.682 3.835,6.682 C2.411,6.682 1.251,7.839 1.251,9.260 C1.251,10.682 2.411,11.839 3.835,11.839 L14.126,11.839 C16.124,11.839 17.749,10.215 17.748,8.219 C17.748,6.223 16.124,4.600 14.126,4.600 ZM3.967,14.098 C4.211,13.847 4.608,13.847 4.852,14.098 C5.096,14.349 5.096,14.755 4.852,15.006 L3.059,16.845 C2.937,16.971 2.777,17.034 2.617,17.034 C2.457,17.034 2.296,16.971 2.174,16.846 C1.930,16.595 1.930,16.188 2.174,15.937 L3.967,14.098 ZM4.229,17.064 C4.474,16.813 4.870,16.813 5.114,17.064 C5.359,17.315 5.359,17.721 5.114,17.972 L3.322,19.812 C3.199,19.937 3.039,20.000 2.879,20.000 C2.719,20.000 2.559,19.937 2.437,19.812 C2.193,19.561 2.193,19.154 2.437,18.903 L4.229,17.064 ZM7.791,14.098 C8.035,13.847 8.432,13.847 8.676,14.098 C8.920,14.349 8.921,14.755 8.676,15.006 L6.883,16.845 C6.762,16.971 6.601,17.034 6.441,17.034 C6.281,17.034 6.121,16.971 5.998,16.846 C5.754,16.595 5.754,16.188 5.998,15.937 L7.791,14.098 ZM8.065,17.064 C8.309,16.813 8.706,16.813 8.950,17.064 C9.194,17.315 9.194,17.721 8.950,17.972 L7.158,19.812 C7.035,19.937 6.875,20.000 6.715,20.000 C6.555,20.000 6.395,19.937 6.273,19.812 C6.028,19.561 6.028,19.154 6.273,18.903 L8.065,17.064 ZM11.615,14.098 C11.860,13.847 12.256,13.847 12.500,14.098 C12.745,14.349 12.745,14.755 12.500,15.006 L10.708,16.845 C10.586,16.971 10.425,17.034 10.265,17.034 C10.105,17.034 9.945,16.971 9.823,16.846 C9.579,16.595 9.578,16.188 9.823,15.937 L11.615,14.098 ZM11.900,17.064 C12.145,16.813 12.541,16.813 12.786,17.064 C13.030,17.315 13.030,17.721 12.786,17.972 L10.993,19.812 C10.871,19.937 10.711,20.000 10.551,20.000 C10.391,20.000 10.231,19.937 10.108,19.812 C9.864,19.561 9.864,19.154 10.108,18.903 L11.900,17.064 ZM15.440,14.098 C15.684,13.847 16.081,13.847 16.325,14.098 C16.569,14.349 16.569,14.755 16.325,15.006 L14.532,16.845 C14.410,16.971 14.250,17.034 14.089,17.034 C13.929,17.034 13.769,16.971 13.647,16.845 C13.403,16.595 13.403,16.188 13.647,15.937 L15.440,14.098 Z"/>
</svg>