<svg 
 xmlns="http://www.w3.org/2000/svg"
 xmlns:xlink="http://www.w3.org/1999/xlink"
 width="11px" height="26px">
<path fill-rule="evenodd"  fill="rgb(53, 172, 207)"
 d="M10.567,6.183 L5.831,0.621 C5.742,0.525 5.635,0.477 5.510,0.477 C5.394,0.477 5.292,0.525 5.203,0.621 L0.534,6.183 C0.418,6.338 0.396,6.507 0.467,6.690 C0.538,6.874 0.667,6.965 0.854,6.965 L3.842,6.965 L3.842,25.041 C3.842,25.177 3.882,25.287 3.963,25.374 C4.042,25.461 4.145,25.504 4.269,25.504 L6.831,25.504 C6.956,25.504 7.058,25.461 7.138,25.374 C7.218,25.287 7.258,25.177 7.258,25.041 L7.258,6.965 L10.246,6.965 C10.424,6.965 10.553,6.874 10.633,6.690 C10.705,6.507 10.682,6.338 10.567,6.183 Z"/>
</svg>