<svg width="11" height="26" xmlns="http://www.w3.org/2000/svg">

 <g>
  <title>background</title>
  <rect fill="none" id="canvas_background" height="402" width="582" y="-1" x="-1"/>
 </g>
 <g>
  <title>Layer 1</title>
  <path stroke="null" id="svg_1" d="m0.354,6.793644l4.752,-7.10568c0.09,-0.122644 0.197,-0.183966 0.322,-0.183966c0.116,0 0.219,0.061322 0.308,0.183966l4.686,7.10568c0.116,0.198019 0.138,0.413923 0.067,0.647713c-0.072,0.235067 -0.201,0.351324 -0.388,0.351324l-2.999,0l0,23.092821c0,0.172468 -0.04,0.314275 -0.121,0.425421c-0.08,0.111146 -0.183,0.16608 -0.308,0.16608l-2.571,0c-0.125,0 -0.227,-0.054934 -0.307,-0.16608c-0.081,-0.111146 -0.121,-0.252953 -0.121,-0.425421l0,-23.092821l-2.999,0c-0.178,0 -0.308,-0.116256 -0.388,-0.351324c-0.071,-0.235067 -0.049,-0.449694 0.067,-0.647713z" fill="rgb(236, 101, 101)" fill-rule="evenodd"/>
 </g>
</svg>